<svg xmlns="http://www.w3.org/2000/svg" xmlns:xlink="http://www.w3.org/1999/xlink" style="margin:auto;background:rgba(NaN, NaN, NaN, 0);display:block;z-index:1;position:relative" width="1116" height="830" preserveAspectRatio="xMidYMid" viewBox="0 0 1116 830">
<g transform="translate(558,415) scale(1,1) translate(-558,-415)"><defs>
  <path id="path-0v5savqeqf6-1" d="M-35 -35L35 -35L35 35L-35 35Z" fill="none" stroke="inherit" stroke-width="4.333333333333334" transform="scale(0.3)"></path>
  <path id="path-0v5savqeqf6-2" d="M0 -37A37 37 0 0 1 0 37A37 37 0 0 1 0 -37" fill="none" stroke="inherit" stroke-width="4.333333333333334" transform="scale(0.3)"></path>
  <path id="path-0v5savqeqf6-3" d="M0 -34.641L40 34.641L-40 34.641Z" fill="none" stroke="inherit" stroke-width="4.333333333333334" transform="scale(0.3)"></path>
</defs><path id="path0" d="M 35.65786345086017 776.6724262800889
c 0 19.37778940272114 -4.74137400279347 5.565960785887987 -10.307334788681457 5.565960785887987
S 15.043193873497257 796.0502156828101 15.043193873497257 776.6724262800889
s 4.74137400279347 -5.565960785887987 10.307334788681457 -5.565960785887987
S 35.65786345086017 757.2946368773677 35.65786345086017 776.6724262800889
z" fill="none" stroke="none"></path>
<use xlink:href="#path-0v5savqeqf6-1" x="0" y="0" stroke="#bbddff">
  <animateMotion begin="-4.5220001911299725s" dur="15.409423836061125s" keyPoints="1;0" keyTimes="0;1" repeatCount="indefinite" calcMode="linear">
    <mpath xlink:href="#path0"></mpath>
  </animateMotion>
</use><path id="path1" d="M 107.59784031389373 103.80487476499924
c 0 25.17326232091478 -6.159415248734467 7.230617900688288 -13.390033149422756 7.230617900688288
S 80.8177740150482 128.97813708591403 80.8177740150482 103.80487476499924
s 6.159415248734467 -7.230617900688288 13.390033149422756 -7.230617900688288
S 107.59784031389373 78.63161244408445 107.59784031389373 103.80487476499924
z" fill="none" stroke="none"></path>
<use xlink:href="#path-0v5savqeqf6-3" x="0" y="0" stroke="#bbddff">
  <animateMotion begin="-1.1095095957623347s" dur="15.105048663419247s" keyPoints="0;1" keyTimes="0;1" repeatCount="indefinite" calcMode="linear">
    <mpath xlink:href="#path1"></mpath>
  </animateMotion>
</use><path id="path2" d="M 185.72287776057289 337.44604910917707
c 0 44.685838890795296 -10.933769090300974 12.835294149483754 -23.769063239784728 12.835294149483754
S 138.1847512810034 382.1318879999724 138.1847512810034 337.44604910917707
s 10.933769090300974 -12.835294149483754 23.769063239784728 -12.835294149483754
S 185.72287776057289 292.76021021838176 185.72287776057289 337.44604910917707
z" fill="none" stroke="none"></path>
<use xlink:href="#path-0v5savqeqf6-3" x="0" y="0" stroke="#bbddff">
  <animateMotion begin="-3.2413060197346732s" dur="16.279527728347038s" keyPoints="0;1" keyTimes="0;1" repeatCount="indefinite" calcMode="linear">
    <mpath xlink:href="#path2"></mpath>
  </animateMotion>
</use><path id="path3" d="M 262.33732665640656 425.872627003702
c 0 55.643072053502124 -13.614794225856901 15.98258452600593 -29.59737875186283 15.98258452600593
S 203.1425691526809 481.51569905720413 203.1425691526809 425.872627003702
s 13.614794225856901 -15.98258452600593 29.59737875186283 -15.98258452600593
S 262.33732665640656 370.2295549501999 262.33732665640656 425.872627003702
z" fill="none" stroke="none"></path>
<use xlink:href="#path-0v5savqeqf6-1" x="0" y="0" stroke="#bbddff">
  <animateMotion begin="-1.6779485232655078s" dur="16.59920781589195s" keyPoints="0;1" keyTimes="0;1" repeatCount="indefinite" calcMode="linear">
    <mpath xlink:href="#path3"></mpath>
  </animateMotion>
</use><path id="path4" d="M 290.9339639038422 255.61536407475995
c 0 51.9615714071081 -12.714001514505172 14.925132212679989 -27.63913372718516 14.925132212679989
S 235.6556964494719 307.5769354818681 235.6556964494719 255.61536407475995
s 12.714001514505172 -14.925132212679989 27.63913372718516 -14.925132212679989
S 290.9339639038422 203.65379266765186 290.9339639038422 255.61536407475995
z" fill="none" stroke="none"></path>
<use xlink:href="#path-0v5savqeqf6-3" x="0" y="0" stroke="#bbddff">
  <animateMotion begin="-4.044125423556229s" dur="11.819071175435239s" keyPoints="1;0" keyTimes="0;1" repeatCount="indefinite" calcMode="linear">
    <mpath xlink:href="#path4"></mpath>
  </animateMotion>
</use><path id="path5" d="M 363.6245603007639 121.88479077099147
c 0 25.789314006345492 -6.31015129942496 7.407568916716258 -13.717720216141219 7.407568916716258
S 336.18911986848144 147.67410477733696 336.18911986848144 121.88479077099147
s 6.31015129942496 -7.407568916716258 13.717720216141219 -7.407568916716258
S 363.6245603007639 96.09547676464598 363.6245603007639 121.88479077099147
z" fill="none" stroke="none"></path>
<use xlink:href="#path-0v5savqeqf6-1" x="0" y="0" stroke="#bbddff">
  <animateMotion begin="-0.5806533736411157s" dur="17.40760698817607s" keyPoints="0;1" keyTimes="0;1" repeatCount="indefinite" calcMode="linear">
    <mpath xlink:href="#path5"></mpath>
  </animateMotion>
</use><path id="path6" d="M 416.39588746350046 625.5003419582569
c 0 46.2327142644502 -11.312259873216538 13.279609416384634 -24.59186928960117 13.279609416384634
S 367.21214888429813 671.7330562227071 367.21214888429813 625.5003419582569
s 11.312259873216538 -13.279609416384634 24.59186928960117 -13.279609416384634
S 416.39588746350046 579.2676276938066 416.39588746350046 625.5003419582569
z" fill="none" stroke="none"></path>
<use xlink:href="#path-0v5savqeqf6-2" x="0" y="0" stroke="#bbddff">
  <animateMotion begin="-4.8196539005528685s" dur="16.389858314303666s" keyPoints="0;1" keyTimes="0;1" repeatCount="indefinite" calcMode="linear">
    <mpath xlink:href="#path6"></mpath>
  </animateMotion>
</use><path id="path7" d="M 488.762945963457 53.79589077240482
c 0 45.59983560146846 -11.157406583338027 13.09782511957073 -24.25523170290876 13.09782511957073
S 440.2524825576395 99.39572637387329 440.2524825576395 53.79589077240482
s 11.157406583338027 -13.09782511957073 24.25523170290876 -13.09782511957073
S 488.762945963457 8.196055170936354 488.762945963457 53.79589077240482
z" fill="none" stroke="none"></path>
<use xlink:href="#path-0v5savqeqf6-3" x="0" y="0" stroke="#bbddff">
  <animateMotion begin="-4.341728628256306s" dur="10.96337084522197s" keyPoints="0;1" keyTimes="0;1" repeatCount="indefinite" calcMode="linear">
    <mpath xlink:href="#path7"></mpath>
  </animateMotion>
</use><path id="path8" d="M 547.4075805479517 304.92996788951507
c 0 34.204214333490704 -8.36911627308815 9.824614755364351 -18.1937310284525 9.824614755364351
S 511.0201184910468 339.1341822230058 511.0201184910468 304.92996788951507
s 8.36911627308815 -9.824614755364351 18.1937310284525 -9.824614755364351
S 547.4075805479517 270.72575355602436 547.4075805479517 304.92996788951507
z" fill="none" stroke="none"></path>
<use xlink:href="#path-0v5savqeqf6-2" x="0" y="0" stroke="#bbddff">
  <animateMotion begin="-4.331644292069238s" dur="12.39462693790081s" keyPoints="0;1" keyTimes="0;1" repeatCount="indefinite" calcMode="linear">
    <mpath xlink:href="#path8"></mpath>
  </animateMotion>
</use><path id="path9" d="M 582.4920115716868 28.576437347760137
c 0 37.203417783415475 -9.102963925729318 10.686088086725722 -19.789052012455038 10.686088086725722
S 542.9139075467767 65.77985513117561 542.9139075467767 28.576437347760137
s 9.102963925729318 -10.686088086725722 19.789052012455038 -10.686088086725722
S 582.4920115716868 -8.626980435655337 582.4920115716868 28.576437347760137
z" fill="none" stroke="none"></path>
<use xlink:href="#path-0v5savqeqf6-2" x="0" y="0" stroke="#bbddff">
  <animateMotion begin="-1.82056828714934s" dur="12.768319964718138s" keyPoints="1;0" keyTimes="0;1" repeatCount="indefinite" calcMode="linear">
    <mpath xlink:href="#path9"></mpath>
  </animateMotion>
</use><path id="path10" d="M 642.1552492631673 602.181904618682
c 0 20.142061525253904 -4.928376756179146 5.785485757253782 -10.713862513432929 5.785485757253782
S 620.7275242363015 622.3239661439359 620.7275242363015 602.181904618682
s 4.928376756179146 -5.785485757253782 10.713862513432929 -5.785485757253782
S 642.1552492631673 582.0398430934281 642.1552492631673 602.181904618682
z" fill="none" stroke="none"></path>
<use xlink:href="#path-0v5savqeqf6-3" x="0" y="0" stroke="#bbddff">
  <animateMotion begin="-0.7250748447502808s" dur="13.312758736108867s" keyPoints="1;0" keyTimes="0;1" repeatCount="indefinite" calcMode="linear">
    <mpath xlink:href="#path10"></mpath>
  </animateMotion>
</use><path id="path11" d="M 751.4097109400136 638.2697544402662
c 0 46.363570383849265 -11.34427785987801 13.317195748552448 -24.66147360843046 13.317195748552448
S 702.0867637231527 684.6333248241154 702.0867637231527 638.2697544402662
s 11.34427785987801 -13.317195748552448 24.66147360843046 -13.317195748552448
S 751.4097109400136 591.9061840564169 751.4097109400136 638.2697544402662
z" fill="none" stroke="none"></path>
<use xlink:href="#path-0v5savqeqf6-2" x="0" y="0" stroke="#bbddff">
  <animateMotion begin="-3.545884655808511s" dur="12.679562977203332s" keyPoints="0;1" keyTimes="0;1" repeatCount="indefinite" calcMode="linear">
    <mpath xlink:href="#path11"></mpath>
  </animateMotion>
</use><path id="path12" d="M 780.8555119001223 355.01530364999115
c 0 60.0707258579025 -14.698156326933589 17.25435742726987 -31.95251375420346 17.25435742726987
S 716.9504843917155 415.08602950789367 716.9504843917155 355.01530364999115
s 14.698156326933589 -17.25435742726987 31.95251375420346 -17.25435742726987
S 780.8555119001223 294.94457779208864 780.8555119001223 355.01530364999115
z" fill="none" stroke="none"></path>
<use xlink:href="#path-0v5savqeqf6-1" x="0" y="0" stroke="#bbddff">
  <animateMotion begin="-2.80458007010378s" dur="11.163251998045599s" keyPoints="1;0" keyTimes="0;1" repeatCount="indefinite" calcMode="linear">
    <mpath xlink:href="#path12"></mpath>
  </animateMotion>
</use><path id="path13" d="M 866.0772937001896 106.95201014256827
c 0 54.277412494140286 -13.280643482608792 15.590320610019019 -28.870964092627812 15.590320610019019
S 808.335365514934 161.22942263670856 808.335365514934 106.95201014256827
s 13.280643482608792 -15.590320610019019 28.870964092627812 -15.590320610019019
S 866.0772937001896 52.674597648427984 866.0772937001896 106.95201014256827
z" fill="none" stroke="none"></path>
<use xlink:href="#path-0v5savqeqf6-2" x="0" y="0" stroke="#bbddff">
  <animateMotion begin="-4.4722668448503615s" dur="12.997961523410302s" keyPoints="0;1" keyTimes="0;1" repeatCount="indefinite" calcMode="linear">
    <mpath xlink:href="#path13"></mpath>
  </animateMotion>
</use><path id="path14" d="M 943.4909265272518 284.81268161900766
c 0 58.02196643841706 -14.196864128548853 16.665883976992134 -30.862748105540987 16.665883976992134
S 881.7654303161698 342.8346480574247 881.7654303161698 284.81268161900766
s 14.196864128548853 -16.665883976992134 30.862748105540987 -16.665883976992134
S 943.4909265272518 226.7907151805906 943.4909265272518 284.81268161900766
z" fill="none" stroke="none"></path>
<use xlink:href="#path-0v5savqeqf6-2" x="0" y="0" stroke="#bbddff">
  <animateMotion begin="-3.897086680656515s" dur="11.31509052448262s" keyPoints="1;0" keyTimes="0;1" repeatCount="indefinite" calcMode="linear">
    <mpath xlink:href="#path14"></mpath>
  </animateMotion>
</use><path id="path15" d="M 948.3786598084614 175.54628061469552
c 0 24.01737814172039 -5.876592524037967 6.8986086151750055 -12.775201139212973 6.8986086151750055
S 922.8282575300354 199.56365875641592 922.8282575300354 175.54628061469552
s 5.876592524037967 -6.8986086151750055 12.775201139212973 -6.8986086151750055
S 948.3786598084614 151.52890247297512 948.3786598084614 175.54628061469552
z" fill="none" stroke="none"></path>
<use xlink:href="#path-0v5savqeqf6-2" x="0" y="0" stroke="#bbddff">
  <animateMotion begin="-4.763930267196423s" dur="19.1474310129255s" keyPoints="0;1" keyTimes="0;1" repeatCount="indefinite" calcMode="linear">
    <mpath xlink:href="#path15"></mpath>
  </animateMotion>
</use><path id="path16" d="M 1033.7525378140383 99.66781897228053
c 0 36.63017783641957 -8.962703087634575 10.52143405939711 -19.484137147031685 10.52143405939711
S 994.7842635199748 136.2979968087001 994.7842635199748 99.66781897228053
s 8.962703087634575 -10.52143405939711 19.484137147031685 -10.52143405939711
S 1033.7525378140383 63.03764113586096 1033.7525378140383 99.66781897228053
z" fill="none" stroke="none"></path>
<use xlink:href="#path-0v5savqeqf6-3" x="0" y="0" stroke="#bbddff">
  <animateMotion begin="-2.3727524190472216s" dur="10.60590078763455s" keyPoints="1;0" keyTimes="0;1" repeatCount="indefinite" calcMode="linear">
    <mpath xlink:href="#path16"></mpath>
  </animateMotion>
</use><path id="path17" d="M 1109.695269929381 383.6794749788654
c 0 60.06609265631484 -14.697022671225968 17.25302661404788 -31.95004928527385 17.25302661404788
S 1045.7951713588336 443.74556763518024 1045.7951713588336 383.6794749788654
s 14.697022671225968 -17.25302661404788 31.95004928527385 -17.25302661404788
S 1109.695269929381 323.6133823225506 1109.695269929381 383.6794749788654
z" fill="none" stroke="none"></path>
<use xlink:href="#path-0v5savqeqf6-1" x="0" y="0" stroke="#bbddff">
  <animateMotion begin="-0.8510729157694097s" dur="19.757053742854076s" keyPoints="0;1" keyTimes="0;1" repeatCount="indefinite" calcMode="linear">
    <mpath xlink:href="#path17"></mpath>
  </animateMotion>
</use></g>
</svg>