<svg xmlns="http://www.w3.org/2000/svg" xmlns:xlink="http://www.w3.org/1999/xlink" style="margin:auto;background:rgba(NaN, NaN, NaN, 0);display:block;z-index:1;position:relative" width="1568" height="833" preserveAspectRatio="xMidYMid" viewBox="0 0 1568 833">
<g transform="translate(784,416.5) scale(1,1) translate(-784,-416.5)"><defs>
  <path id="path-uitjg4avja-1" d="M-35 -35L35 -35L35 35L-35 35Z" fill="none" stroke="inherit" stroke-width="5.7894736842105265" transform="scale(0.38)"></path>
  <path id="path-uitjg4avja-2" d="M0 -37A37 37 0 0 1 0 37A37 37 0 0 1 0 -37" fill="none" stroke="inherit" stroke-width="5.7894736842105265" transform="scale(0.38)"></path>
  <path id="path-uitjg4avja-3" d="M0 -34.641L40 34.641L-40 34.641Z" fill="none" stroke="inherit" stroke-width="5.7894736842105265" transform="scale(0.38)"></path>
</defs><path id="path0" d="M 90.72014987790223 800.6087097083745
c 0 56.28041528252124 -13.770739909553068 16.165651198170995 -29.936391107724063 16.165651198170995
S 30.847367662454097 856.8891249908958 30.847367662454097 800.6087097083745
s 13.770739909553068 -16.165651198170995 29.936391107724063 -16.165651198170995
S 90.72014987790223 744.3282944258532 90.72014987790223 800.6087097083745
z" fill="none" stroke="none"></path>
<use xlink:href="#path-uitjg4avja-3" x="0" y="0" stroke="#bbddff">
  <animateMotion begin="-3.3883952559709334s" dur="9.680065965867792s" keyPoints="1;0" keyTimes="0;1" repeatCount="indefinite" calcMode="linear">
    <mpath xlink:href="#path0"></mpath>
  </animateMotion>
</use><path id="path1" d="M 162.61184645634444 614.2961849293637
c 0 39.69811586706038 -9.713368775982858 11.40265030224075 -21.11601907822361 11.40265030224075
S 120.3798082998972 653.9943007964241 120.3798082998972 614.2961849293637
s 9.713368775982858 -11.40265030224075 21.11601907822361 -11.40265030224075
S 162.61184645634444 574.5980690623032 162.61184645634444 614.2961849293637
z" fill="none" stroke="none"></path>
<use xlink:href="#path-uitjg4avja-2" x="0" y="0" stroke="#bbddff">
  <animateMotion begin="-1.525807433876083s" dur="14.433471504411452s" keyPoints="1;0" keyTimes="0;1" repeatCount="indefinite" calcMode="linear">
    <mpath xlink:href="#path1"></mpath>
  </animateMotion>
</use><path id="path2" d="M 249.74472276301697 49.87587417304825
c 0 28.260558183984752 -6.914817427996268 8.117394371995621 -15.032211799991888 8.117394371995621
S 219.68029916303317 78.136432357033 219.68029916303317 49.87587417304825
s 6.914817427996268 -8.117394371995621 15.032211799991888 -8.117394371995621
S 249.74472276301697 21.6153159890635 249.74472276301697 49.87587417304825
z" fill="none" stroke="none"></path>
<use xlink:href="#path-uitjg4avja-2" x="0" y="0" stroke="#bbddff">
  <animateMotion begin="-2.210967752294642s" dur="10.70198373219661s" keyPoints="1;0" keyTimes="0;1" repeatCount="indefinite" calcMode="linear">
    <mpath xlink:href="#path2"></mpath>
  </animateMotion>
</use><path id="path3" d="M 283.6356574001005 250.00871112881723
c 0 42.19023124818798 -10.32314168838642 12.118470677671016 -22.441612366057434 12.118470677671016
S 238.75243266798566 292.1989423770052 238.75243266798566 250.00871112881723
s 10.32314168838642 -12.118470677671016 22.441612366057434 -12.118470677671016
S 283.6356574001005 207.81847988062924 283.6356574001005 250.00871112881723
z" fill="none" stroke="none"></path>
<use xlink:href="#path-uitjg4avja-1" x="0" y="0" stroke="#bbddff">
  <animateMotion begin="-2.3144028310928935s" dur="14.721092267879s" keyPoints="1;0" keyTimes="0;1" repeatCount="indefinite" calcMode="linear">
    <mpath xlink:href="#path3"></mpath>
  </animateMotion>
</use><path id="path4" d="M 385.83249381402624 595.6403501758695
c 0 20.048806938983677 -4.905559144644942 5.758699865452759 -10.664259010097702 5.758699865452759
S 364.5039757938309 615.6891571148532 364.5039757938309 595.6403501758695
s 4.905559144644942 -5.758699865452759 10.664259010097702 -5.758699865452759
S 385.83249381402624 575.5915432368857 385.83249381402624 595.6403501758695
z" fill="none" stroke="none"></path>
<use xlink:href="#path-uitjg4avja-2" x="0" y="0" stroke="#bbddff">
  <animateMotion begin="-0.9420001057087944s" dur="10.459690336274425s" keyPoints="1;0" keyTimes="0;1" repeatCount="indefinite" calcMode="linear">
    <mpath xlink:href="#path4"></mpath>
  </animateMotion>
</use><path id="path5" d="M 495.19407832706077 456.8276234064777
c 0 42.810558698647455 -10.4749239369031 12.296649838973204 -22.771573775876305 12.296649838973204
S 449.6509307753082 499.63818210512517 449.6509307753082 456.8276234064777
s 10.4749239369031 -12.296649838973204 22.771573775876305 -12.296649838973204
S 495.19407832706077 414.01706470783023 495.19407832706077 456.8276234064777
z" fill="none" stroke="none"></path>
<use xlink:href="#path-uitjg4avja-3" x="0" y="0" stroke="#bbddff">
  <animateMotion begin="-1.2302023267335906s" dur="13.660913274532756s" keyPoints="1;0" keyTimes="0;1" repeatCount="indefinite" calcMode="linear">
    <mpath xlink:href="#path5"></mpath>
  </animateMotion>
</use><path id="path6" d="M 575.3132140417998 517.4388662604628
c 0 43.54452646303666 -10.654511794147266 12.507470367042446 -23.161982161189712 12.507470367042446
S 528.9892497194204 560.9833927234994 528.9892497194204 517.4388662604628
s 10.654511794147266 -12.507470367042446 23.161982161189712 -12.507470367042446
S 575.3132140417998 473.8943397974261 575.3132140417998 517.4388662604628
z" fill="none" stroke="none"></path>
<use xlink:href="#path-uitjg4avja-1" x="0" y="0" stroke="#bbddff">
  <animateMotion begin="-2.3579224975541972s" dur="9.223589378756706s" keyPoints="0;1" keyTimes="0;1" repeatCount="indefinite" calcMode="linear">
    <mpath xlink:href="#path6"></mpath>
  </animateMotion>
</use><path id="path7" d="M 661.9934511159796 287.2506356736337
c 0 63.358990659212246 -15.502731757041293 18.198859019135433 -33.70159077617672 18.198859019135433
S 594.5902695636261 350.60962633284595 594.5902695636261 287.2506356736337
s 15.502731757041293 -18.198859019135433 33.70159077617672 -18.198859019135433
S 661.9934511159796 223.89164501442147 661.9934511159796 287.2506356736337
z" fill="none" stroke="none"></path>
<use xlink:href="#path-uitjg4avja-3" x="0" y="0" stroke="#bbddff">
  <animateMotion begin="-2.6690831585731334s" dur="9.908139684732168s" keyPoints="1;0" keyTimes="0;1" repeatCount="indefinite" calcMode="linear">
    <mpath xlink:href="#path7"></mpath>
  </animateMotion>
</use><path id="path8" d="M 666.8150430753556 672.6622712261682
c 0 23.138644882660493 -5.661583322353098 6.646206508849291 -12.307789831202388 6.646206508849291
S 642.1994634129508 695.8009161088287 642.1994634129508 672.6622712261682
s 5.661583322353098 -6.646206508849291 12.307789831202388 -6.646206508849291
S 666.8150430753556 649.5236263435077 666.8150430753556 672.6622712261682
z" fill="none" stroke="none"></path>
<use xlink:href="#path-uitjg4avja-1" x="0" y="0" stroke="#bbddff">
  <animateMotion begin="-1.7378891717953722s" dur="9.182311845818612s" keyPoints="0;1" keyTimes="0;1" repeatCount="indefinite" calcMode="linear">
    <mpath xlink:href="#path8"></mpath>
  </animateMotion>
</use><path id="path9" d="M 762.6678330575347 271.9712122519114
c 0 32.22440312862896 -7.88469438253687 9.255945579499807 -17.140639962036676 9.255945579499807
S 728.3865531334615 304.1956153805404 728.3865531334615 271.9712122519114
s 7.88469438253687 -9.255945579499807 17.140639962036676 -9.255945579499807
S 762.6678330575347 239.74680912328247 762.6678330575347 271.9712122519114
z" fill="none" stroke="none"></path>
<use xlink:href="#path-uitjg4avja-1" x="0" y="0" stroke="#bbddff">
  <animateMotion begin="-1.0475083565407763s" dur="17.94606025706921s" keyPoints="1;0" keyTimes="0;1" repeatCount="indefinite" calcMode="linear">
    <mpath xlink:href="#path9"></mpath>
  </animateMotion>
</use><path id="path10" d="M 858.7649042979558 170.66125087581906
c 0 23.301640718874175 -5.701465282277723 6.693024461804284 -12.394489744082007 6.693024461804284
S 833.9759248097919 193.96289159469325 833.9759248097919 170.66125087581906
s 5.701465282277723 -6.693024461804284 12.394489744082007 -6.693024461804284
S 858.7649042979558 147.35961015694488 858.7649042979558 170.66125087581906
z" fill="none" stroke="none"></path>
<use xlink:href="#path-uitjg4avja-3" x="0" y="0" stroke="#bbddff">
  <animateMotion begin="-0.8773860474143723s" dur="13.832411073259594s" keyPoints="0;1" keyTimes="0;1" repeatCount="indefinite" calcMode="linear">
    <mpath xlink:href="#path10"></mpath>
  </animateMotion>
</use><path id="path11" d="M 882.5037067044582 110.17585209942087
c 0 23.92053762515147 -5.852897504026424 6.870792722117976 -12.723690226144399 6.870792722117976
S 857.0563262521694 134.09638972457233 857.0563262521694 110.17585209942087
s 5.852897504026424 -6.870792722117976 12.723690226144399 -6.870792722117976
S 882.5037067044582 86.2553144742694 882.5037067044582 110.17585209942087
z" fill="none" stroke="none"></path>
<use xlink:href="#path-uitjg4avja-2" x="0" y="0" stroke="#bbddff">
  <animateMotion begin="-1.2450118987149892s" dur="15.601749233989834s" keyPoints="0;1" keyTimes="0;1" repeatCount="indefinite" calcMode="linear">
    <mpath xlink:href="#path11"></mpath>
  </animateMotion>
</use><path id="path12" d="M 968.1815948323839 809.9817890339132
c 0 21.959567039071818 -5.3730855521133165 6.307535213350415 -11.680620765463733 6.307535213350415
S 944.8203533014565 831.941356072985 944.8203533014565 809.9817890339132
s 5.3730855521133165 -6.307535213350415 11.680620765463733 -6.307535213350415
S 968.1815948323839 788.0222219948414 968.1815948323839 809.9817890339132
z" fill="none" stroke="none"></path>
<use xlink:href="#path-uitjg4avja-3" x="0" y="0" stroke="#bbddff">
  <animateMotion begin="-0.3421864551333972s" dur="17.17876900930671s" keyPoints="1;0" keyTimes="0;1" repeatCount="indefinite" calcMode="linear">
    <mpath xlink:href="#path12"></mpath>
  </animateMotion>
</use><path id="path13" d="M 1111.3054188330755 573.6213491408022
c 0 50.57527971627769 -12.374802483770072 14.52694204616487 -26.90174452993494 14.52694204616487
S 1057.5019297732058 624.1966288570799 1057.5019297732058 573.6213491408022
s 12.374802483770072 -14.52694204616487 26.90174452993494 -14.52694204616487
S 1111.3054188330755 523.0460694245245 1111.3054188330755 573.6213491408022
z" fill="none" stroke="none"></path>
<use xlink:href="#path-uitjg4avja-3" x="0" y="0" stroke="#bbddff">
  <animateMotion begin="-1.8656971218395881s" dur="14.360522623596838s" keyPoints="1;0" keyTimes="0;1" repeatCount="indefinite" calcMode="linear">
    <mpath xlink:href="#path13"></mpath>
  </animateMotion>
</use><path id="path14" d="M 1125.837825949174 320.64198519149227
c 0 45.10859622776988 -11.037209715305394 12.956724448401987 -23.993934163707383 12.956724448401987
S 1077.8499576217594 365.7505814192622 1077.8499576217594 320.64198519149227
s 11.037209715305394 -12.956724448401987 23.993934163707383 -12.956724448401987
S 1125.837825949174 275.53338896372236 1125.837825949174 320.64198519149227
z" fill="none" stroke="none"></path>
<use xlink:href="#path-uitjg4avja-2" x="0" y="0" stroke="#bbddff">
  <animateMotion begin="-2.432006203261733s" dur="14.48093860305425s" keyPoints="1;0" keyTimes="0;1" repeatCount="indefinite" calcMode="linear">
    <mpath xlink:href="#path14"></mpath>
  </animateMotion>
</use><path id="path15" d="M 1187.8275584014789 763.2761600187246
c 0 27.964570704365304 -6.842394959578744 8.032376691679396 -14.87477165125814 8.032376691679396
S 1158.0780150989624 791.2407307230899 1158.0780150989624 763.2761600187246
s 6.842394959578744 -8.032376691679396 14.87477165125814 -8.032376691679396
S 1187.8275584014789 735.3115893143593 1187.8275584014789 763.2761600187246
z" fill="none" stroke="none"></path>
<use xlink:href="#path-uitjg4avja-3" x="0" y="0" stroke="#bbddff">
  <animateMotion begin="-4.400533057927196s" dur="14.566968232316984s" keyPoints="1;0" keyTimes="0;1" repeatCount="indefinite" calcMode="linear">
    <mpath xlink:href="#path15"></mpath>
  </animateMotion>
</use><path id="path16" d="M 1292.3530136866311 269.8658990649819
c 0 52.74902532222082 -12.906676408628496 15.151315784042149 -28.057992192670646 15.151315784042149
S 1236.23702930129 322.6149243872027 1236.23702930129 269.8658990649819
s 12.906676408628496 -15.151315784042149 28.057992192670646 -15.151315784042149
S 1292.3530136866311 217.11687374276107 1292.3530136866311 269.8658990649819
z" fill="none" stroke="none"></path>
<use xlink:href="#path-uitjg4avja-1" x="0" y="0" stroke="#bbddff">
  <animateMotion begin="-2.185353039475941s" dur="13.166041821624173s" keyPoints="1;0" keyTimes="0;1" repeatCount="indefinite" calcMode="linear">
    <mpath xlink:href="#path16"></mpath>
  </animateMotion>
</use><path id="path17" d="M 1345.7421595639698 127.22022494864366
c 0 58.918824156939436 -14.416308038400073 16.923492045078348 -31.339800083478423 16.923492045078348
S 1283.062559397013 186.1390491055831 1283.062559397013 127.22022494864366
s 14.416308038400073 -16.923492045078348 31.339800083478423 -16.923492045078348
S 1345.7421595639698 68.30140079170422 1345.7421595639698 127.22022494864366
z" fill="none" stroke="none"></path>
<use xlink:href="#path-uitjg4avja-1" x="0" y="0" stroke="#bbddff">
  <animateMotion begin="-0.16465450676707669s" dur="10.317849530911873s" keyPoints="0;1" keyTimes="0;1" repeatCount="indefinite" calcMode="linear">
    <mpath xlink:href="#path17"></mpath>
  </animateMotion>
</use><path id="path18" d="M 1412.496999319713 453.0001878245475
c 0 40.81615099009874 -9.986930561407137 11.72378805034751 -21.710718611754647 11.72378805034751
S 1369.0755620962038 493.8163388146462 1369.0755620962038 453.0001878245475
s 9.986930561407137 -11.72378805034751 21.710718611754647 -11.72378805034751
S 1412.496999319713 412.18403683444876 1412.496999319713 453.0001878245475
z" fill="none" stroke="none"></path>
<use xlink:href="#path-uitjg4avja-1" x="0" y="0" stroke="#bbddff">
  <animateMotion begin="-1.6712267647765102s" dur="10.87257988407801s" keyPoints="0;1" keyTimes="0;1" repeatCount="indefinite" calcMode="linear">
    <mpath xlink:href="#path18"></mpath>
  </animateMotion>
</use><path id="path19" d="M 1489.7965943914633 174.2980923111332
c 0 25.570120073744615 -6.25651874144815 7.344608957352176 -13.601127698800326 7.344608957352176
S 1462.5943389938625 199.8682123848778 1462.5943389938625 174.2980923111332
s 6.25651874144815 -7.344608957352176 13.601127698800326 -7.344608957352176
S 1489.7965943914633 148.72797223738857 1489.7965943914633 174.2980923111332
z" fill="none" stroke="none"></path>
<use xlink:href="#path-uitjg4avja-3" x="0" y="0" stroke="#bbddff">
  <animateMotion begin="-2.8983134675211537s" dur="17.164388681276222s" keyPoints="0;1" keyTimes="0;1" repeatCount="indefinite" calcMode="linear">
    <mpath xlink:href="#path19"></mpath>
  </animateMotion>
</use></g>
</svg>