<svg xmlns="http://www.w3.org/2000/svg" xmlns:xlink="http://www.w3.org/1999/xlink" style="margin:auto;background:rgba(NaN, NaN, NaN, 0);display:block;z-index:1;position:relative" width="1016" height="833" preserveAspectRatio="xMidYMid" viewBox="0 0 1016 833">
<g transform="translate(508,416.5) scale(1,1) translate(-508,-416.5)"><defs>
  <path id="path-y41g302fsso-1" d="M-35 -35L35 -35L35 35L-35 35Z" fill="none" stroke="inherit" stroke-width="3.8709677419354844" transform="scale(0.31)"></path>
  <path id="path-y41g302fsso-2" d="M0 -37A37 37 0 0 1 0 37A37 37 0 0 1 0 -37" fill="none" stroke="inherit" stroke-width="3.8709677419354844" transform="scale(0.31)"></path>
  <path id="path-y41g302fsso-3" d="M0 -34.641L40 34.641L-40 34.641Z" fill="none" stroke="inherit" stroke-width="3.8709677419354844" transform="scale(0.31)"></path>
</defs><path id="path0" d="M 44.08896809818016 777.1310752895629
c 0 22.5579263024843 -5.5194926059270095 6.479404363479533 -11.998896969406543 6.479404363479533
S 20.09117415936707 799.6890015920471 20.09117415936707 777.1310752895629
s 5.5194926059270095 -6.479404363479533 11.998896969406543 -6.479404363479533
S 44.08896809818016 754.5731489870786 44.08896809818016 777.1310752895629
z" fill="none" stroke="none"></path>
<use xlink:href="#path-y41g302fsso-3" x="0" y="0" stroke="#a25ce0">
  <animateMotion begin="-4.573807613033384s" dur="12.52570081082663s" keyPoints="1;0" keyTimes="0;1" repeatCount="indefinite" calcMode="linear">
    <mpath xlink:href="#path0"></mpath>
  </animateMotion>
</use><path id="path1" d="M 86.4726149259045 492.48546305183197
c 0 21.859991452468968 -5.348721312838151 6.278933715070874 -11.627655027909025 6.278933715070874
S 63.21730487008644 514.345454504301 63.21730487008644 492.48546305183197
s 5.348721312838151 -6.278933715070874 11.627655027909025 -6.278933715070874
S 86.4726149259045 470.625471599363 86.4726149259045 492.48546305183197
z" fill="none" stroke="none"></path>
<use xlink:href="#path-y41g302fsso-2" x="0" y="0" stroke="#009dff">
  <animateMotion begin="-2.908482958008012s" dur="15.374076611483662s" keyPoints="0;1" keyTimes="0;1" repeatCount="indefinite" calcMode="linear">
    <mpath xlink:href="#path1"></mpath>
  </animateMotion>
</use><path id="path2" d="M 119.68079762329018 705.8015896853409
c 0 41.602295950052074 -10.179285179268058 11.949595645227724 -22.12888082449578 11.949595645227724
S 75.42303597429861 747.403885635393 75.42303597429861 705.8015896853409
s 10.179285179268058 -11.949595645227724 22.12888082449578 -11.949595645227724
S 119.68079762329018 664.1992937352888 119.68079762329018 705.8015896853409
z" fill="none" stroke="none"></path>
<use xlink:href="#path-y41g302fsso-2" x="0" y="0" stroke="#a25ce0">
  <animateMotion begin="-0.5759212832899241s" dur="16.908560238030798s" keyPoints="0;1" keyTimes="0;1" repeatCount="indefinite" calcMode="linear">
    <mpath xlink:href="#path2"></mpath>
  </animateMotion>
</use><path id="path3" d="M 142.5511223623505 186.94778942050203
c 0 37.46985834187072 -9.16815682833007 10.762618885430951 -19.93077571376102 10.762618885430951
S 102.68957093482845 224.41764776237275 102.68957093482845 186.94778942050203
s 9.16815682833007 -10.762618885430951 19.93077571376102 -10.762618885430951
S 142.5511223623505 149.47793107863131 142.5511223623505 186.94778942050203
z" fill="none" stroke="none"></path>
<use xlink:href="#path-y41g302fsso-1" x="0" y="0" stroke="#009dff">
  <animateMotion begin="-4.519990963490073s" dur="19.92188742394488s" keyPoints="0;1" keyTimes="0;1" repeatCount="indefinite" calcMode="linear">
    <mpath xlink:href="#path3"></mpath>
  </animateMotion>
</use><path id="path4" d="M 158.67706072908308 235.0855947215196
c 0 29.304353724920766 -7.170214209289123 8.417207984817667 -15.58742219410679 8.417207984817667
S 127.50221634086951 264.38994844644037 127.50221634086951 235.0855947215196
s 7.170214209289123 -8.417207984817667 15.58742219410679 -8.417207984817667
S 158.67706072908308 205.78124099659885 158.67706072908308 235.0855947215196
z" fill="none" stroke="none"></path>
<use xlink:href="#path-y41g302fsso-3" x="0" y="0" stroke="#009dff">
  <animateMotion begin="-0.6702658061824207s" dur="13.427959211014493s" keyPoints="0;1" keyTimes="0;1" repeatCount="indefinite" calcMode="linear">
    <mpath xlink:href="#path4"></mpath>
  </animateMotion>
</use><path id="path5" d="M 182.04235551583162 108.7804392462972
c 0 33.236579434693795 -8.132354542531461 9.546677071667368 -17.679031614198827 9.546677071667368
S 146.68429228743395 142.017018680991 146.68429228743395 108.7804392462972
s 8.132354542531461 -9.546677071667368 17.679031614198827 -9.546677071667368
S 182.04235551583162 75.54385981160341 182.04235551583162 108.7804392462972
z" fill="none" stroke="none"></path>
<use xlink:href="#path-y41g302fsso-3" x="0" y="0" stroke="#009dff">
  <animateMotion begin="-4.729744906117897s" dur="17.956595334292295s" keyPoints="1;0" keyTimes="0;1" repeatCount="indefinite" calcMode="linear">
    <mpath xlink:href="#path5"></mpath>
  </animateMotion>
</use><path id="path6" d="M 199.85448624702278 375.91182585227295
c 0 20.546115247040433 -5.027240964701382 5.901543741171188 -10.92878470587257 5.901543741171188
S 177.99691683527763 396.4579410993134 177.99691683527763 375.91182585227295
s 5.027240964701382 -5.901543741171188 10.92878470587257 -5.901543741171188
S 199.85448624702278 355.3657106052325 199.85448624702278 375.91182585227295
z" fill="none" stroke="none"></path>
<use xlink:href="#path-y41g302fsso-3" x="0" y="0" stroke="#009dff">
  <animateMotion begin="-0.6328525303021926s" dur="16.775275332935138s" keyPoints="1;0" keyTimes="0;1" repeatCount="indefinite" calcMode="linear">
    <mpath xlink:href="#path6"></mpath>
  </animateMotion>
</use><path id="path7" d="M 234.0685825709241 387.17519849353437
c 0 21.19326963966035 -5.185587252257319 6.087428513519463 -11.273015765776782 6.087428513519463
S 211.5225510393705 408.3684681331947 211.5225510393705 387.17519849353437
s 5.185587252257319 -6.087428513519463 11.273015765776782 -6.087428513519463
S 234.0685825709241 365.981928853874 234.0685825709241 387.17519849353437
z" fill="none" stroke="none"></path>
<use xlink:href="#path-y41g302fsso-2" x="0" y="0" stroke="#a25ce0">
  <animateMotion begin="-1.4869157623878526s" dur="13.28529057586194s" keyPoints="1;0" keyTimes="0;1" repeatCount="indefinite" calcMode="linear">
    <mpath xlink:href="#path7"></mpath>
  </animateMotion>
</use><path id="path8" d="M 272.47773833267365 677.8472562524598
c 0 42.09133980782977 -10.298944846596644 12.09006568948302 -22.389010536079663 12.09006568948302
S 227.69971726051435 719.9385960602896 227.69971726051435 677.8472562524598
s 10.298944846596644 -12.09006568948302 22.389010536079663 -12.09006568948302
S 272.47773833267365 635.7559164446301 272.47773833267365 677.8472562524598
z" fill="none" stroke="none"></path>
<use xlink:href="#path-y41g302fsso-3" x="0" y="0" stroke="#009dff">
  <animateMotion begin="-1.149298731682391s" dur="19.11079728521049s" keyPoints="1;0" keyTimes="0;1" repeatCount="indefinite" calcMode="linear">
    <mpath xlink:href="#path8"></mpath>
  </animateMotion>
</use><path id="path9" d="M 312.34710486103506 755.4718479807508
c 0 48.84195204481368 -11.950690393943772 14.029071332020951 -25.97976172596472 14.029071332020951
S 260.38758140910556 804.3138000255644 260.38758140910556 755.4718479807508
s 11.950690393943772 -14.029071332020951 25.97976172596472 -14.029071332020951
S 312.34710486103506 706.6298959359372 312.34710486103506 755.4718479807508
z" fill="none" stroke="none"></path>
<use xlink:href="#path-y41g302fsso-2" x="0" y="0" stroke="#009dff">
  <animateMotion begin="-4.027768524371897s" dur="15.422869206443021s" keyPoints="1;0" keyTimes="0;1" repeatCount="indefinite" calcMode="linear">
    <mpath xlink:href="#path9"></mpath>
  </animateMotion>
</use><path id="path10" d="M 309.0811906211375 271.67262934946467
c 0 24.998627648575717 -6.116685488481292 7.180456877782387 -13.297142366263678 7.180456877782387
S 282.4869058886101 296.6712569980404 282.4869058886101 271.67262934946467
s 6.116685488481292 -7.180456877782387 13.297142366263678 -7.180456877782387
S 309.0811906211375 246.67400170088897 309.0811906211375 271.67262934946467
z" fill="none" stroke="none"></path>
<use xlink:href="#path-y41g302fsso-2" x="0" y="0" stroke="#009dff">
  <animateMotion begin="-3.2062550339808094s" dur="11.618559347961364s" keyPoints="0;1" keyTimes="0;1" repeatCount="indefinite" calcMode="linear">
    <mpath xlink:href="#path10"></mpath>
  </animateMotion>
</use><path id="path11" d="M 348.4682959701304 766.5631930639523
c 0 41.937250040828616 -10.261242031266576 12.045805862791198 -22.307047894057774 12.045805862791198
S 303.8542001820149 808.500443104781 303.8542001820149 766.5631930639523
s 10.261242031266576 -12.045805862791198 22.307047894057774 -12.045805862791198
S 348.4682959701304 724.6259430231237 348.4682959701304 766.5631930639523
z" fill="none" stroke="none"></path>
<use xlink:href="#path-y41g302fsso-1" x="0" y="0" stroke="#a25ce0">
  <animateMotion begin="-0.29025452009859287s" dur="10.12560266519933s" keyPoints="1;0" keyTimes="0;1" repeatCount="indefinite" calcMode="linear">
    <mpath xlink:href="#path11"></mpath>
  </animateMotion>
</use><path id="path12" d="M 388.62629986274055 524.5014988840713
c 0 48.04027343923336 -11.754534990450713 13.798801945311709 -25.553336935762424 13.798801945311709
S 337.51962599121566 572.5417723233047 337.51962599121566 524.5014988840713
s 11.754534990450713 -13.798801945311709 25.553336935762424 -13.798801945311709
S 388.62629986274055 476.46122544483796 388.62629986274055 524.5014988840713
z" fill="none" stroke="none"></path>
<use xlink:href="#path-y41g302fsso-2" x="0" y="0" stroke="#009dff">
  <animateMotion begin="-4.988483131524628s" dur="14.815511199310606s" keyPoints="1;0" keyTimes="0;1" repeatCount="indefinite" calcMode="linear">
    <mpath xlink:href="#path12"></mpath>
  </animateMotion>
</use><path id="path13" d="M 414.81139424273505 228.71446075232552
c 0 47.221673125082546 -11.554239168903175 13.56367206784286 -25.117911236746036 13.56367206784286
S 364.575571769243 275.93613387740805 364.575571769243 228.71446075232552
s 11.554239168903175 -13.56367206784286 25.117911236746036 -13.56367206784286
S 414.81139424273505 181.492787627243 414.81139424273505 228.71446075232552
z" fill="none" stroke="none"></path>
<use xlink:href="#path-y41g302fsso-1" x="0" y="0" stroke="#009dff">
  <animateMotion begin="-4.482127534239616s" dur="14.709697616754191s" keyPoints="1;0" keyTimes="0;1" repeatCount="indefinite" calcMode="linear">
    <mpath xlink:href="#path13"></mpath>
  </animateMotion>
</use><path id="path14" d="M 429.99977595917255 636.4342399276868
c 0 36.42149435326239 -8.91164223537271 10.461493058915792 -19.373135294288502 10.461493058915792
S 391.2535053705956 672.8557342809492 391.2535053705956 636.4342399276868
s 8.91164223537271 -10.461493058915792 19.373135294288502 -10.461493058915792
S 429.99977595917255 600.0127455744245 429.99977595917255 636.4342399276868
z" fill="none" stroke="none"></path>
<use xlink:href="#path-y41g302fsso-3" x="0" y="0" stroke="#009dff">
  <animateMotion begin="-0.6206794344090094s" dur="13.224631408818112s" keyPoints="0;1" keyTimes="0;1" repeatCount="indefinite" calcMode="linear">
    <mpath xlink:href="#path14"></mpath>
  </animateMotion>
</use><path id="path15" d="M 470.69562563649714 789.5310075944302
c 0 60.60058968300757 -14.827803858608233 17.406552355757494 -32.234356214365725 17.406552355757494
S 406.2269132077657 850.1315972774378 406.2269132077657 789.5310075944302
s 14.827803858608233 -17.406552355757494 32.234356214365725 -17.406552355757494
S 470.69562563649714 728.9304179114226 470.69562563649714 789.5310075944302
z" fill="none" stroke="none"></path>
<use xlink:href="#path-y41g302fsso-1" x="0" y="0" stroke="#009dff">
  <animateMotion begin="-0.95796073921674s" dur="15.81473174014709s" keyPoints="0;1" keyTimes="0;1" repeatCount="indefinite" calcMode="linear">
    <mpath xlink:href="#path15"></mpath>
  </animateMotion>
</use><path id="path16" d="M 488.5151309368838 258.00692299559523
c 0 56.633352879213 -13.85709698108403 16.267026890837776 -30.12412387192181 16.267026890837776
S 428.26688319304014 314.64027587480825 428.26688319304014 258.00692299559523
s 13.85709698108403 -16.267026890837776 30.12412387192181 -16.267026890837776
S 488.5151309368838 201.37357011638224 488.5151309368838 258.00692299559523
z" fill="none" stroke="none"></path>
<use xlink:href="#path-y41g302fsso-2" x="0" y="0" stroke="#009dff">
  <animateMotion begin="-3.148414843534205s" dur="18.710756076606753s" keyPoints="0;1" keyTimes="0;1" repeatCount="indefinite" calcMode="linear">
    <mpath xlink:href="#path16"></mpath>
  </animateMotion>
</use><path id="path17" d="M 523.3106138012932 580.8385230350517
c 0 28.873910697416225 -7.064893042984821 8.293570093938703 -15.358463136923524 8.293570093938703
S 492.5936875274462 609.712433732468 492.5936875274462 580.8385230350517
s 7.064893042984821 -8.293570093938703 15.358463136923524 -8.293570093938703
S 523.3106138012932 551.9646123376355 523.3106138012932 580.8385230350517
z" fill="none" stroke="none"></path>
<use xlink:href="#path-y41g302fsso-3" x="0" y="0" stroke="#009dff">
  <animateMotion begin="-4.722349103064217s" dur="10.338198835943846s" keyPoints="0;1" keyTimes="0;1" repeatCount="indefinite" calcMode="linear">
    <mpath xlink:href="#path17"></mpath>
  </animateMotion>
</use><path id="path18" d="M 556.086825733679 309.62171545825487
c 0 54.3036201251346 -13.287055988064848 15.597848333815259 -28.884904321880107 15.597848333815259
S 498.3170170899188 363.9253355833895 498.3170170899188 309.62171545825487
s 13.287055988064848 -15.597848333815259 28.884904321880107 -15.597848333815259
S 556.086825733679 255.31809533312025 556.086825733679 309.62171545825487
z" fill="none" stroke="none"></path>
<use xlink:href="#path-y41g302fsso-1" x="0" y="0" stroke="#009dff">
  <animateMotion begin="-2.5116664745246253s" dur="19.94926671658465s" keyPoints="0;1" keyTimes="0;1" repeatCount="indefinite" calcMode="linear">
    <mpath xlink:href="#path18"></mpath>
  </animateMotion>
</use><path id="path19" d="M 556.0335760461177 124.68422642136574
c 0 27.24231682431783 -6.665673265524575 7.824920789963632 -14.490594055488206 7.824920789963632
S 527.0523879351412 151.92654324568358 527.0523879351412 124.68422642136574
s 6.665673265524575 -7.824920789963632 14.490594055488206 -7.824920789963632
S 556.0335760461177 97.44190959704791 556.0335760461177 124.68422642136574
z" fill="none" stroke="none"></path>
<use xlink:href="#path-y41g302fsso-3" x="0" y="0" stroke="#009dff">
  <animateMotion begin="-3.0394090774839775s" dur="14.455297764101154s" keyPoints="0;1" keyTimes="0;1" repeatCount="indefinite" calcMode="linear">
    <mpath xlink:href="#path19"></mpath>
  </animateMotion>
</use><path id="path20" d="M 591.1130866534104 75.9896881433849
c 0 38.347860378331994 -9.382987113847188 11.014810959733659 -20.397798073580844 11.014810959733659
S 550.3174905062488 114.33754852171688 550.3174905062488 75.9896881433849
s 9.382987113847188 -11.014810959733659 20.397798073580844 -11.014810959733659
S 591.1130866534104 37.6418277650529 591.1130866534104 75.9896881433849
z" fill="none" stroke="none"></path>
<use xlink:href="#path-y41g302fsso-3" x="0" y="0" stroke="#009dff">
  <animateMotion begin="-1.4673538064529856s" dur="11.931328005497896s" keyPoints="1;0" keyTimes="0;1" repeatCount="indefinite" calcMode="linear">
    <mpath xlink:href="#path20"></mpath>
  </animateMotion>
</use><path id="path21" d="M 618.3663146224956 296.47326891051546
c 0 23.773420380573153 -5.816900731416834 6.828535641228459 -12.645436372645293 6.828535641228459
S 593.0754418772051 320.2466892910886 593.0754418772051 296.47326891051546
s 5.816900731416834 -6.828535641228459 12.645436372645293 -6.828535641228459
S 618.3663146224956 272.6998485299423 618.3663146224956 296.47326891051546
z" fill="none" stroke="none"></path>
<use xlink:href="#path-y41g302fsso-2" x="0" y="0" stroke="#009dff">
  <animateMotion begin="-2.417496849154367s" dur="15.514460769163303s" keyPoints="1;0" keyTimes="0;1" repeatCount="indefinite" calcMode="linear">
    <mpath xlink:href="#path21"></mpath>
  </animateMotion>
</use><path id="path22" d="M 663.5744620927492 736.0193397519656
c 0 54.210590642249805 -13.264293455018567 15.571127099369624 -28.835420554388193 15.571127099369624
S 605.9036209839728 790.2299303942154 605.9036209839728 736.0193397519656
s 13.264293455018567 -15.571127099369624 28.835420554388193 -15.571127099369624
S 663.5744620927492 681.8087491097158 663.5744620927492 736.0193397519656
z" fill="none" stroke="none"></path>
<use xlink:href="#path-y41g302fsso-2" x="0" y="0" stroke="#009dff">
  <animateMotion begin="-2.9390478787238283s" dur="19.808684164584285s" keyPoints="0;1" keyTimes="0;1" repeatCount="indefinite" calcMode="linear">
    <mpath xlink:href="#path22"></mpath>
  </animateMotion>
</use><path id="path23" d="M 653.6787167830122 337.7923895985405
c 0 19.032679833479065 -4.656932299681047 5.466833569190796 -10.123765868871843 5.466833569190796
S 633.4311850452685 356.8250694320196 633.4311850452685 337.7923895985405
s 4.656932299681047 -5.466833569190796 10.123765868871843 -5.466833569190796
S 653.6787167830122 318.7597097650615 653.6787167830122 337.7923895985405
z" fill="none" stroke="none"></path>
<use xlink:href="#path-y41g302fsso-2" x="0" y="0" stroke="#009dff">
  <animateMotion begin="-4.0123462272562165s" dur="19.782271070067218s" keyPoints="1;0" keyTimes="0;1" repeatCount="indefinite" calcMode="linear">
    <mpath xlink:href="#path23"></mpath>
  </animateMotion>
</use><path id="path24" d="M 711.37927765652 550.5033275989484
c 0 30.756771597170086 -7.525593050371403 8.834391841740345 -16.359984892111747 8.834391841740345
S 678.6593078722966 581.2600991961185 678.6593078722966 550.5033275989484
s 7.525593050371403 -8.834391841740345 16.359984892111747 -8.834391841740345
S 711.37927765652 519.7465560017783 711.37927765652 550.5033275989484
z" fill="none" stroke="none"></path>
<use xlink:href="#path-y41g302fsso-1" x="0" y="0" stroke="#009dff">
  <animateMotion begin="-2.3700364851682822s" dur="10.430029095346802s" keyPoints="0;1" keyTimes="0;1" repeatCount="indefinite" calcMode="linear">
    <mpath xlink:href="#path24"></mpath>
  </animateMotion>
</use><path id="path25" d="M 717.2104241727378 297.01656893740994
c 0 35.30449591581785 -8.638334107061814 10.140653082203 -18.778987189264814 10.140653082203
S 679.6524497942081 332.32106485322777 679.6524497942081 297.01656893740994
s 8.638334107061814 -10.140653082203 18.778987189264814 -10.140653082203
S 717.2104241727378 261.7120730215921 717.2104241727378 297.01656893740994
z" fill="none" stroke="none"></path>
<use xlink:href="#path-y41g302fsso-2" x="0" y="0" stroke="#a25ce0">
  <animateMotion begin="-3.595155510426795s" dur="12.742949933691818s" keyPoints="1;0" keyTimes="0;1" repeatCount="indefinite" calcMode="linear">
    <mpath xlink:href="#path25"></mpath>
  </animateMotion>
</use><path id="path26" d="M 778.4372458913919 663.6949349908933
c 0 58.89786422199466 -14.411179543679543 16.91747163823251 -31.32865118191205 16.91747163823251
S 715.7799435275678 722.5927992128879 715.7799435275678 663.6949349908933
s 14.411179543679543 -16.91747163823251 31.32865118191205 -16.91747163823251
S 778.4372458913919 604.7970707688987 778.4372458913919 663.6949349908933
z" fill="none" stroke="none"></path>
<use xlink:href="#path-y41g302fsso-1" x="0" y="0" stroke="#009dff">
  <animateMotion begin="-4.656593740200586s" dur="13.926871416325731s" keyPoints="0;1" keyTimes="0;1" repeatCount="indefinite" calcMode="linear">
    <mpath xlink:href="#path26"></mpath>
  </animateMotion>
</use><path id="path27" d="M 782.2150381651533 703.5954575450378
c 0 18.973543791044534 -4.6424628424896195 5.449847684661727 -10.092310527151348 5.449847684661727
S 762.0304171108506 722.5690013360824 762.0304171108506 703.5954575450378
s 4.6424628424896195 -5.449847684661727 10.092310527151348 -5.449847684661727
S 782.2150381651533 684.6219137539932 782.2150381651533 703.5954575450378
z" fill="none" stroke="none"></path>
<use xlink:href="#path-y41g302fsso-1" x="0" y="0" stroke="#009dff">
  <animateMotion begin="-2.1469155888999802s" dur="18.029376781783114s" keyPoints="0;1" keyTimes="0;1" repeatCount="indefinite" calcMode="linear">
    <mpath xlink:href="#path27"></mpath>
  </animateMotion>
</use><path id="path28" d="M 813.7445908225932 205.41339701941394
c 0 37.84640511744898 -9.2602906138439 10.870775937990665 -20.131066551834564 10.870775937990665
S 773.482457718924 243.2598021368629 773.482457718924 205.41339701941394
s 9.2602906138439 -10.870775937990665 20.131066551834564 -10.870775937990665
S 813.7445908225932 167.56699190196497 813.7445908225932 205.41339701941394
z" fill="none" stroke="none"></path>
<use xlink:href="#path-y41g302fsso-1" x="0" y="0" stroke="#009dff">
  <animateMotion begin="-4.403192515570326s" dur="16.99108767858276s" keyPoints="0;1" keyTimes="0;1" repeatCount="indefinite" calcMode="linear">
    <mpath xlink:href="#path28"></mpath>
  </animateMotion>
</use><path id="path29" d="M 842.6948223095658 265.4296678944198
c 0 56.598411668293714 -13.8485475358591 16.25699058557373 -30.105538121432826 16.25699058557373
S 782.4837460667002 322.0280795627135 782.4837460667002 265.4296678944198
s 13.8485475358591 -16.25699058557373 30.105538121432826 -16.25699058557373
S 842.6948223095658 208.8312562261261 842.6948223095658 265.4296678944198
z" fill="none" stroke="none"></path>
<use xlink:href="#path-y41g302fsso-2" x="0" y="0" stroke="#a25ce0">
  <animateMotion begin="-3.1459324878673343s" dur="13.643565131291346s" keyPoints="1;0" keyTimes="0;1" repeatCount="indefinite" calcMode="linear">
    <mpath xlink:href="#path29"></mpath>
  </animateMotion>
</use><path id="path30" d="M 867.4732000863132 160.03426940869025
c 0 53.261393150595815 -13.032043004933016 15.2984852666605 -28.330528271593515 15.2984852666605
S 810.8121435431262 213.29566255928606 810.8121435431262 160.03426940869025
s 13.032043004933016 -15.2984852666605 28.330528271593515 -15.2984852666605
S 867.4732000863132 106.77287625809444 867.4732000863132 160.03426940869025
z" fill="none" stroke="none"></path>
<use xlink:href="#path-y41g302fsso-2" x="0" y="0" stroke="#a25ce0">
  <animateMotion begin="-1.2956371735847294s" dur="12.012971832652466s" keyPoints="0;1" keyTimes="0;1" repeatCount="indefinite" calcMode="linear">
    <mpath xlink:href="#path30"></mpath>
  </animateMotion>
</use><path id="path31" d="M 900.1166885952971 452.40795203665135
c 0 25.904051883820117 -6.338225460934709 7.440525541097268 -13.778751002031978 7.440525541097268
S 872.5591865912331 478.31200392047145 872.5591865912331 452.40795203665135
s 6.338225460934709 -7.440525541097268 13.778751002031978 -7.440525541097268
S 900.1166885952971 426.50390015283125 900.1166885952971 452.40795203665135
z" fill="none" stroke="none"></path>
<use xlink:href="#path-y41g302fsso-1" x="0" y="0" stroke="#009dff">
  <animateMotion begin="-3.4727458168564054s" dur="13.274792833555576s" keyPoints="1;0" keyTimes="0;1" repeatCount="indefinite" calcMode="linear">
    <mpath xlink:href="#path31"></mpath>
  </animateMotion>
</use><path id="path32" d="M 931.5914277091133 709.6944371717627
c 0 53.210279093235854 -13.019536373876857 15.283803569333704 -28.30333994321056 15.283803569333704
S 874.9847478226923 762.9047162649986 874.9847478226923 709.6944371717627
s 13.019536373876857 -15.283803569333704 28.30333994321056 -15.283803569333704
S 931.5914277091133 656.4841580785269 931.5914277091133 709.6944371717627
z" fill="none" stroke="none"></path>
<use xlink:href="#path-y41g302fsso-1" x="0" y="0" stroke="#009dff">
  <animateMotion begin="-3.160683508649713s" dur="15.250782274017444s" keyPoints="1;0" keyTimes="0;1" repeatCount="indefinite" calcMode="linear">
    <mpath xlink:href="#path32"></mpath>
  </animateMotion>
</use><path id="path33" d="M 939.6425079834277 589.3098764319417
c 0 18.99428778755065 -4.647538501209201 5.45580606663689 -10.10334456784609 5.45580606663689
S 919.4358188477355 608.3041642194923 919.4358188477355 589.3098764319417
s 4.647538501209201 -5.45580606663689 10.10334456784609 -5.45580606663689
S 939.6425079834277 570.315588644391 939.6425079834277 589.3098764319417
z" fill="none" stroke="none"></path>
<use xlink:href="#path-y41g302fsso-2" x="0" y="0" stroke="#009dff">
  <animateMotion begin="-2.185271075961289s" dur="11.06848580360987s" keyPoints="0;1" keyTimes="0;1" repeatCount="indefinite" calcMode="linear">
    <mpath xlink:href="#path33"></mpath>
  </animateMotion>
</use><path id="path34" d="M 975.1832384478604 801.0405133657638
c 0 41.59752150852646 -10.178116964852219 11.948224263087388 -22.12634122793961 11.948224263087388
S 930.9305559919811 842.6380348742903 930.9305559919811 801.0405133657638
s 10.178116964852219 -11.948224263087388 22.12634122793961 -11.948224263087388
S 975.1832384478604 759.4429918572373 975.1832384478604 801.0405133657638
z" fill="none" stroke="none"></path>
<use xlink:href="#path-y41g302fsso-3" x="0" y="0" stroke="#009dff">
  <animateMotion begin="-1.862587405548669s" dur="10.454858700784913s" keyPoints="1;0" keyTimes="0;1" repeatCount="indefinite" calcMode="linear">
    <mpath xlink:href="#path34"></mpath>
  </animateMotion>
</use><path id="path35" d="M 1005.0862957583731 710.1878360020136
c 0 59.345889176855486 -14.520802670932722 17.046159657181896 -31.56696232811462 17.046159657181896
S 941.9523711021438 769.5337251788691 941.9523711021438 710.1878360020136
s 14.520802670932722 -17.046159657181896 31.56696232811462 -17.046159657181896
S 1005.0862957583731 650.8419468251581 1005.0862957583731 710.1878360020136
z" fill="none" stroke="none"></path>
<use xlink:href="#path-y41g302fsso-2" x="0" y="0" stroke="#009dff">
  <animateMotion begin="-2.597217158292743s" dur="14.723449172651602s" keyPoints="0;1" keyTimes="0;1" repeatCount="indefinite" calcMode="linear">
    <mpath xlink:href="#path35"></mpath>
  </animateMotion>
</use></g>
</svg>